<?xml version="1.0" encoding="UTF-8" standalone="no"?>
<svg
   xmlns:dc="http://purl.org/dc/elements/1.1/"
   xmlns:cc="http://creativecommons.org/ns#"
   xmlns:rdf="http://www.w3.org/1999/02/22-rdf-syntax-ns#"
   xmlns:svg="http://www.w3.org/2000/svg"
   xmlns="http://www.w3.org/2000/svg"
   xmlns:sodipodi="http://sodipodi.sourceforge.net/DTD/sodipodi-0.dtd"
   xmlns:inkscape="http://www.inkscape.org/namespaces/inkscape"
   version="1.1"
   id="Capa_1"
   x="0px"
   y="0px"
   viewBox="0 0 172.5 60"
   xml:space="preserve"
   inkscape:version="0.91 r13725"
   sodipodi:docname="logo-path.svg"
   width="172.5"
   height="60"
   inkscape:export-filename="/Users/jeodier/Downloads/logo-alt.png"
   inkscape:export-xdpi="179.99998"
   inkscape:export-ydpi="179.99998"><metadata
     id="metadata51"><rdf:RDF><cc:Work
         rdf:about=""><dc:format>image/svg+xml</dc:format><dc:type
           rdf:resource="http://purl.org/dc/dcmitype/StillImage" /><dc:title /></cc:Work></rdf:RDF></metadata><defs
     id="defs49" /><sodipodi:namedview
     pagecolor="#ffffff"
     bordercolor="#666666"
     borderopacity="1"
     objecttolerance="10"
     gridtolerance="10"
     guidetolerance="10"
     inkscape:pageopacity="0"
     inkscape:pageshadow="2"
     inkscape:window-width="1280"
     inkscape:window-height="689"
     id="namedview47"
     showgrid="false"
     fit-margin-top="0"
     fit-margin-left="0"
     fit-margin-right="0"
     fit-margin-bottom="0"
     inkscape:zoom="6.6202899"
     inkscape:cx="86.249999"
     inkscape:cy="30"
     inkscape:window-x="0"
     inkscape:window-y="0"
     inkscape:window-maximized="1"
     inkscape:current-layer="Capa_1" /><g
     id="g17" /><g
     id="g19" /><g
     id="g21" /><g
     id="g23" /><g
     id="g25" /><g
     id="g27" /><g
     id="g29" /><g
     id="g31" /><g
     id="g33" /><g
     id="g35" /><g
     id="g37" /><g
     id="g39" /><g
     id="g41" /><g
     id="g43" /><g
     id="g45" /><path
     style="fill:#3989cd;fill-opacity:1;stroke:#ffff00;stroke-width:0;stroke-linecap:butt;stroke-miterlimit:4;stroke-dasharray:none;stroke-dashoffset:0;stroke-opacity:1"
     d="m 30,0 c -0.528421,0 -1.022898,0.2824101 -1.287109,0.7363281 l -3.011719,5.1699219 c -0.114524,0.197096 -0.175781,0.4195254 -0.175781,0.6464844 0,0.715718 0.585335,1.296875 1.30664,1.296875 l 6.335938,0 c 0.721305,0 1.30664,-0.5801989 1.30664,-1.2949219 0,-0.227954 -0.06126,-0.4533325 -0.175781,-0.6484375 l -3.011719,-5.1699219 c -0.265215,-0.454913 -0.757684,-0.7363281 -1.287109,-0.7363281 z m 0,2.5097656 1.951172,3.3476563 -3.902344,0 z m 5.416016,1.0429688 0.740234,1.2695312 0,0.00195 c 0.306613,0.5245226 0.46875,1.1192992 0.46875,1.7304687 0,1.2946868 -0.749121,2.4175896 -1.818359,3.0058594 7.706968,1.8099803 13.772742,7.8739773 15.607421,15.5703123 0.59784,-1.060541 1.71605,-1.80664 3.015626,-1.80664 0.620144,0 1.222251,0.167549 1.753906,0.480469 l 1.255859,0.740234 c -2.142709,-10.398751 -10.28674,-18.7937985 -21.023437,-20.9921846 z m -10.84961,0.029297 c -10.731168,2.2046824 -18.8692385,10.6002976 -21.0078122,20.9980466 l 1.2597656,-0.734375 c 0.00126,-8e-4 0.00266,-0.0012 0.00391,-0.002 l 0.00195,0 c 0.5245226,-0.306613 1.1192999,-0.46875 1.7304687,-0.46875 1.300261,0 2.4276188,0.755356 3.0136719,1.832031 1.812944,-7.732755 7.893891,-13.83112 15.626953,-15.6464839 -1.07026,-0.5886916 -1.820312,-1.7127984 -1.820312,-3.0078125 0,-0.6139721 0.165768,-1.2084906 0.466797,-1.7265625 l 0,-0.00195 z m 5.433594,7.4179686 c -10.505327,0 -19,8.494675 -19,19 0,10.505325 8.494673,19 19,19 10.505327,0 19,-8.494674 19,-19 0,-10.505325 -8.494673,-19 -19,-19 z m -0.01563,8 c 0.563762,-0.0088 1.023364,0.449894 1.015625,1.013672 l 0,7.572266 3.232422,-3.232422 c 0.181122,-0.186414 0.427701,-0.294994 0.6875,-0.302735 0.911805,-0.02689 1.380665,1.080982 0.726562,1.716797 l -3.232422,3.232422 7.572266,0 c 1.34888,-0.01564 1.34888,2.015638 0,2 l -7.572266,0 3.232422,3.232422 c 0.98168,0.942508 -0.471554,2.395742 -1.414062,1.414062 l -3.232422,-3.232422 0,7.572266 c 0.01564,1.34888 -2.015638,1.34888 -2,0 l 0,-7.572266 -3.232422,3.232422 c -0.942508,0.98168 -2.395742,-0.471554 -1.414062,-1.414062 l 3.232422,-3.232422 -7.572266,0 c -1.34888,0.01564 -1.34888,-2.015638 0,-2 l 7.572266,0 -3.232422,-3.232422 c -0.643112,-0.625911 -0.200152,-1.716561 0.697265,-1.716797 0.270002,1.6e-5 0.528526,0.109202 0.716797,0.302735 l 3.232422,3.232422 0,-7.572266 c -0.0076,-0.551539 0.432851,-1.005069 0.984375,-1.013672 z m -23.4296875,6.525391 c -0.2279546,0 -0.4533323,0.06126 -0.6484375,0.175781 l -5.1699219,3.011719 c -0.4549137,0.265215 -0.7363281,0.757684 -0.7363281,1.287109 0,0.528421 0.2824098,1.022898 0.7363281,1.287109 l 5.1699219,3.011719 c 0.1970962,0.114524 0.4195252,0.175781 0.6464844,0.175781 0.7157177,0 1.296875,-0.585335 1.296875,-1.30664 l 0,-6.335938 c 0,-0.721305 -0.5801996,-1.30664 -1.2949219,-1.30664 z m 46.8750005,0 c -0.705596,0 -1.279297,0.585336 -1.279297,1.30664 l 0,6.335938 c 0,0.721304 0.5737,1.30664 1.279297,1.30664 0.22406,0 0.444092,-0.06126 0.638671,-0.175781 l 5.257813,-3.101562 c 0.41471,-0.247131 0.673828,-0.705011 0.673828,-1.197266 0,-0.492255 -0.260089,-0.951139 -0.675781,-1.197266 l -5.257813,-3.103515 c -0.19458,-0.114525 -0.414623,-0.173828 -0.636718,-0.173828 z m -47.5722661,2.523437 0,3.902344 -3.3476563,-1.951172 z m 48.2578121,0 3.306641,1.951172 -3.306641,1.951172 z m -44.5468746,6.742188 c -0.5864644,1.077708 -1.7150316,1.833984 -3.015625,1.833984 -0.6139721,0 -1.2084933,-0.165769 -1.7265625,-0.466797 l -0.00195,0 -1.2753907,-0.744141 c 2.1517816,10.567617 10.4708698,18.8926 21.0390628,21.042969 l -0.742188,-1.27539 c -8e-4,-0.0012 -0.0012,-0.0026 -0.002,-0.0039 l 0,-0.002 c -0.306613,-0.524522 -0.46875,-1.119298 -0.46875,-1.730469 0,-1.294685 0.749121,-2.417589 1.818359,-3.005859 -7.732905,-1.816071 -13.812854,-7.915173 -15.6249995,-15.648437 z m 40.8457026,0.07813 c -1.83494,7.696702 -7.901632,13.760892 -15.609374,15.570312 1.070259,0.588692 1.820312,1.712798 1.820312,3.007813 0,0.613972 -0.165768,1.20849 -0.466797,1.726562 l 0,0.002 -0.746094,1.28125 c 10.555191,-2.147724 18.866952,-10.454814 21.03125,-21.003906 l -1.257812,0.742187 -0.002,0 c -0.523945,0.308361 -1.128651,0.480469 -1.753906,0.480469 -1.299574,0 -2.417782,-0.746099 -3.015626,-1.80664 z m -23.582031,17.28125 c -0.721305,0 -1.30664,0.580198 -1.30664,1.294921 0,0.227954 0.0619,0.452956 0.175781,0.648438 l 3.011719,5.169922 c 0.265215,0.454913 0.757684,0.736328 1.287109,0.736328 0.528421,0 1.022736,-0.282504 1.287109,-0.736328 l 3.011719,-5.169922 c 0.114743,-0.196968 0.175781,-0.419525 0.175781,-0.646484 0,-0.715718 -0.585335,-1.296875 -1.30664,-1.296875 z m 1.216797,1.992187 3.902344,0 -1.951172,3.347656 z"
     id="path4240"
     inkscape:connector-curvature="0"
     sodipodi:nodetypes="sccssssccscccccccsccsccccccccsccscccsssssccccccccccccccccccccccccccccsccsccssssssssccsccscccccccccscccccccscccssccccccscssccsccssscccccc" /><polygon
     id="polygon15"
     points="49.875,29.908 49.888,29.909 49.888,29.908 "
     transform="matrix(1,0,0,1.0041673,0,-0.12451675)" /><g
     id="g4194"><path
       sodipodi:nodetypes="cc"
       inkscape:connector-curvature="0"
       id="path4483"
       d="m 30.505329,29.495245 c 10.442716,-10.370649 11.796348,-12.850734 21.987723,-12.995266"
       style="fill:none;fill-rule:evenodd;stroke:#ffff00;stroke-width:1;stroke-linecap:round;stroke-linejoin:miter;stroke-miterlimit:4;stroke-dasharray:none;stroke-opacity:1" /><path
       sodipodi:nodetypes="cc"
       inkscape:connector-curvature="0"
       id="path4483-5"
       d="m 29.494844,30.504585 c -10.442716,10.370648 -11.796348,12.850733 -21.9877235,12.995265"
       style="fill:none;fill-rule:evenodd;stroke:#ffff00;stroke-width:1;stroke-linecap:round;stroke-linejoin:miter;stroke-miterlimit:4;stroke-dasharray:none;stroke-opacity:1" /></g><text
     xml:space="preserve"
     style="font-style:normal;font-weight:normal;font-size:63.38028336px;line-height:125%;font-family:Sans;letter-spacing:0px;word-spacing:0px;fill:#777777;fill-opacity:1;stroke:none;stroke-width:1px;stroke-linecap:butt;stroke-linejoin:miter;stroke-opacity:1"
     x="63.697182"
     y="51.866199"
     id="text3367"
     sodipodi:linespacing="125%"><tspan
       sodipodi:role="line"
       id="tspan3369"
       x="63.697182"
       y="51.866199"
       style="font-style:normal;font-variant:normal;font-weight:normal;font-stretch:normal;font-size:63.38028336px;line-height:125%;font-family:Trochut;-inkscape-font-specification:'Trochut, Normal';text-align:start;writing-mode:lr-tb;text-anchor:start;fill:#777777;fill-opacity:1">AMI</tspan></text>
<rect
     style="fill:#aaaaaa;fill-opacity:1;stroke:none;stroke-width:0.0009998;stroke-linecap:round;stroke-miterlimit:4;stroke-dasharray:none;stroke-dashoffset:0;stroke-opacity:1"
     id="rect3373"
     width="6.8889132"
     height="6.3923149"
     x="163.832"
     y="8.1416855"
     rx="0" /></svg>